HIERARCHY
ROOT joint_Root
{
	OFFSET 0.0 0.0 0.0
	CHANNELS 6 Xposition Yposition Zposition Zrotation Xrotation Yrotation 
	JOINT Hips
	{
		OFFSET -0.726466 93.3139 -2.00062
		CHANNELS 6 Xposition Yposition Zposition Zrotation Xrotation Yrotation 
		JOINT Spine
		{
			OFFSET 15.7357 0.0 0.0
			CHANNELS 6 Xposition Yposition Zposition Zrotation Xrotation Yrotation 
			JOINT Chest
			{
				OFFSET 8.98455 -0.406207 0.0
				CHANNELS 6 Xposition Yposition Zposition Zrotation Xrotation Yrotation 
				JOINT Neck
				{
					OFFSET 16.3773 0.0 0.0
					CHANNELS 6 Xposition Yposition Zposition Zrotation Xrotation Yrotation 
					JOINT Head
					{
						OFFSET 6.45672 0.0 0.0
						CHANNELS 6 Xposition Yposition Zposition Zrotation Xrotation Yrotation 
						End Site
						{
							OFFSET 0.0 0.0 0.0
						}
					}
				}
				JOINT Shoulder_L
				{
					OFFSET 12.9942 -0.242716 4.98039
					CHANNELS 6 Xposition Yposition Zposition Zrotation Xrotation Yrotation 
					JOINT UpperArm_L
					{
						OFFSET 5.34809 0.0 0.0
						CHANNELS 6 Xposition Yposition Zposition Zrotation Xrotation Yrotation 
						JOINT LowerArm_L
						{
							OFFSET 24.3286 1.87007e-05 0.0
							CHANNELS 6 Xposition Yposition Zposition Zrotation Xrotation Yrotation 
							JOINT Hand_L
							{
								OFFSET 22.2916 0.0 0.0
								CHANNELS 6 Xposition Yposition Zposition Zrotation Xrotation Yrotation 
								End Site
								{
									OFFSET 0.0 0.0 0.0
								}
							}
						}
					}
				}
				JOINT Shoulder_R
				{
					OFFSET 12.9945 -0.242716 -4.98039
					CHANNELS 6 Xposition Yposition Zposition Zrotation Xrotation Yrotation 
					JOINT UpperArm_R
					{
						OFFSET -5.34813 0.0 0.0
						CHANNELS 6 Xposition Yposition Zposition Zrotation Xrotation Yrotation 
						JOINT LowerArm_R
						{
							OFFSET -24.3289 0.000322201 0.0
							CHANNELS 6 Xposition Yposition Zposition Zrotation Xrotation Yrotation 
							JOINT Hand_R
							{
								OFFSET -22.2915 -0.000108084 0.0
								CHANNELS 6 Xposition Yposition Zposition Zrotation Xrotation Yrotation 
								End Site
								{
									OFFSET 0.0 0.0 0.0
								}
							}
						}
					}
				}
			}
		}
		JOINT UpperLeg_L
		{
			OFFSET -2.19248 -6.46944 0.0
			CHANNELS 6 Xposition Yposition Zposition Zrotation Xrotation Yrotation 
			JOINT LowerLeg_L
			{
				OFFSET 39.0811 0.0 -1.23785e-05
				CHANNELS 6 Xposition Yposition Zposition Zrotation Xrotation Yrotation 
				JOINT Foot_L
				{
					OFFSET 40.9854 0.0 -1.26872e-05
					CHANNELS 6 Xposition Yposition Zposition Zrotation Xrotation Yrotation 
					JOINT Toes_L
					{
						OFFSET 11.7543 0.0 0.0
						CHANNELS 6 Xposition Yposition Zposition Zrotation Xrotation Yrotation 
						End Site
						{
							OFFSET 0.0 0.0 0.0
						}
					}
				}
			}
		}
		JOINT UpperLeg_R
		{
			OFFSET -2.19251 6.46944 0.0
			CHANNELS 6 Xposition Yposition Zposition Zrotation Xrotation Yrotation 
			JOINT LowerLeg_R
			{
				OFFSET -39.0811 -0.00228153 -0.0401928
				CHANNELS 6 Xposition Yposition Zposition Zrotation Xrotation Yrotation 
				JOINT Foot_R
				{
					OFFSET -40.9854 0.0 0.0
					CHANNELS 6 Xposition Yposition Zposition Zrotation Xrotation Yrotation 
					JOINT Toes_R
					{
						OFFSET -11.7543 0.0 0.0
						CHANNELS 6 Xposition Yposition Zposition Zrotation Xrotation Yrotation 
						End Site
						{
							OFFSET 0.0 0.0 0.0
						}
					}
				}
			}
		}
	}
}
MOTION
Frames:	4
Frame Time:	0.0333333
0.000000 0.000000 0.000000 0.000000 0.000000 -0.000000 -0.669808 92.193200 -0.190751 88.279800 0.776789 5.949180 15.735700 0.000005 -0.000001 80.068800 86.287000 -79.644700 8.984550 -0.406207 -0.000000 -0.446176 -1.310830 0.842673 16.377300 -0.000001 -0.000001 4.911660 -2.477390 -0.008649 6.456720 -0.000001 -0.000000 9.001960 -3.471540 -0.719023 12.994200 -0.242716 4.980390 -86.839200 -9.335840 -71.200800 5.348090 -0.000007 -0.000001 -84.354400 -32.241300 -94.418400 24.328600 0.000019 0.000005 10.165000 1.446180 -81.987700 22.291600 -0.000001 0.000005 25.502700 5.591330 -10.837400 12.994500 -0.242716 -4.980390 91.139800 -3.612190 -72.474700 -5.348130 -0.000001 -0.000004 -78.504600 -30.299200 -102.515000 -24.328900 0.000322 -0.000009 16.810800 4.148960 -76.534400 -22.291500 -0.000108 -0.000004 24.674100 5.467360 -5.272150 -2.192480 -6.469440 -0.000000 -175.222000 -7.827820 -0.905975 39.081100 -0.000007 -0.000012 -0.113887 0.263633 23.364000 40.985400 -0.000006 -0.000013 0.054017 4.772350 -66.706500 11.754300 -0.000000 0.000003 -0.000045 -0.000519 -16.597700 -2.192510 6.469440 -0.000001 178.873000 15.567100 -177.771000 -39.081100 -0.002282 -0.040193 -0.049819 0.147041 19.869700 -40.985400 0.000008 0.000006 2.912630 6.834000 -66.434200 -11.754300 -0.000006 -0.000006 -0.008758 -0.094113 -20.406200
0.000000 0.000000 0.000000 0.000000 0.000000 -0.000000 -0.689193 92.212300 -0.222217 88.284800 0.749822 5.866900 15.735700 0.000005 -0.000001 80.124100 86.283800 -79.694400 8.984550 -0.406207 -0.000000 -0.438563 -1.305250 0.854003 16.377300 -0.000001 -0.000001 4.866620 -2.452820 -0.004682 6.456720 -0.000001 -0.000000 8.922920 -3.422670 -0.840832 12.994200 -0.242716 4.980390 -86.835800 -9.300380 -71.115500 5.348090 -0.000007 -0.000001 -84.200700 -32.440100 -94.505000 24.328600 0.000019 0.000005 10.245000 1.494420 -81.789200 22.291600 -0.000001 0.000005 25.411000 5.590460 -10.787800 12.994500 -0.242716 -4.980390 91.149400 -3.612130 -72.335200 -5.348130 -0.000001 -0.000004 -78.405100 -30.251800 -102.746000 -24.328900 0.000322 -0.000009 16.715700 4.233910 -76.190000 -22.291500 -0.000108 -0.000004 24.650800 5.467160 -5.264960 -2.192480 -6.469440 -0.000000 -175.220000 -7.861480 -0.940862 39.081100 -0.000007 -0.000012 -0.112927 0.263000 23.237900 40.985400 -0.000006 -0.000013 0.039802 4.801640 -66.624600 11.754300 -0.000000 0.000003 -0.000053 -0.000591 -16.600500 -2.192510 6.469440 -0.000001 178.930000 15.584000 -177.840000 -39.081100 -0.002282 -0.040193 -0.046348 0.138161 19.773800 -40.985400 0.000008 0.000006 3.014570 6.827010 -66.374000 -11.754300 -0.000006 -0.000006 -0.008402 -0.091284 -20.290700
0.000000 0.000000 0.000000 0.000000 0.000000 -0.000000 -0.714667 92.218600 -0.251648 88.293200 0.761328 5.814620 15.735700 0.000005 -0.000001 80.064400 86.267200 -79.633700 8.984550 -0.406207 -0.000000 -0.407182 -1.318560 0.856259 16.377300 -0.000001 -0.000001 4.891300 -2.407600 -0.056273 6.456720 -0.000001 -0.000000 8.785330 -3.409060 -0.875711 12.994200 -0.242716 4.980390 -86.818700 -9.297580 -71.015500 5.348090 -0.000007 -0.000001 -84.021900 -32.603000 -94.502600 24.328600 0.000019 0.000005 10.285700 1.520160 -81.683200 22.291600 -0.000001 0.000005 25.288300 5.589100 -10.711400 12.994500 -0.242716 -4.980390 91.156600 -3.612880 -72.234200 -5.348130 -0.000001 -0.000004 -78.134000 -30.327500 -102.864000 -24.328900 0.000322 -0.000009 16.698800 4.300000 -75.968800 -22.291500 -0.000108 -0.000004 24.646100 5.462240 -5.083470 -2.192480 -6.469440 -0.000000 -175.230000 -7.852410 -1.008730 39.081100 -0.000007 -0.000012 -0.111817 0.260769 23.209500 40.985400 -0.000006 -0.000013 0.025265 4.793430 -66.580200 11.754300 -0.000000 0.000003 -0.000045 -0.000513 -16.597500 -2.192510 6.469440 -0.000001 178.949000 15.609800 -177.905000 -39.081100 -0.002282 -0.040193 -0.046068 0.137518 19.755700 -40.985400 0.000008 0.000006 3.044660 6.859350 -66.352700 -11.754300 -0.000006 -0.000006 -0.008476 -0.091875 -20.314800
0.000000 0.000000 0.000000 0.000000 0.000000 -0.000000 -0.736379 92.223600 -0.272763 88.275000 0.796576 5.762290 15.735700 0.000005 -0.000001 80.179700 86.257100 -79.740500 8.984550 -0.406207 -0.000000 -0.384753 -1.307700 0.873660 16.377300 -0.000001 -0.000001 4.938680 -2.406450 -0.073823 6.456720 -0.000001 -0.000000 8.672270 -3.413570 -0.953602 12.994200 -0.242716 4.980390 -86.815600 -9.271100 -70.948600 5.348090 -0.000007 -0.000001 -83.800000 -32.686400 -94.371500 24.328600 0.000019 0.000005 10.183400 1.495160 -81.735300 22.291600 -0.000001 0.000005 25.047600 5.586860 -10.585400 12.994500 -0.242716 -4.980390 91.161400 -3.599350 -72.102800 -5.348130 -0.000001 -0.000004 -77.812600 -30.445400 -102.859000 -24.328900 0.000322 -0.000009 16.370800 4.235990 -75.887600 -22.291500 -0.000108 -0.000004 24.428700 5.461970 -5.072700 -2.192480 -6.469440 -0.000000 -175.189000 -7.886250 -1.081900 39.081100 -0.000007 -0.000012 -0.115270 0.268920 23.202000 40.985400 -0.000006 -0.000013 0.013033 4.846710 -66.550400 11.754300 -0.000000 0.000003 -0.000041 -0.000477 -16.596100 -2.192510 6.469440 -0.000001 179.015000 15.650800 -177.963000 -39.081100 -0.002282 -0.040193 -0.043029 0.129099 19.749700 -40.985400 0.000008 0.000006 3.248710 6.814850 -66.375700 -11.754300 -0.000006 -0.000006 -0.008499 -0.092057 -20.322200
